<?xml version="1.0" encoding="UTF-8"?>
<svg width="1300px" height="1479px" viewBox="0 0 1300 1479" version="1.1" xmlns="http://www.w3.org/2000/svg" xmlns:xlink="http://www.w3.org/1999/xlink">
    <!-- Generator: Sketch 52.2 (67145) - http://www.bohemiancoding.com/sketch -->
    <title>inViewWithOffset</title>
    <desc>Created with Sketch.</desc>
    <g id="inViewWithOffset" stroke="none" stroke-width="1" fill="none" fill-rule="evenodd">
        <rect fill="#FFFFFF" x="0" y="0" width="1300" height="1479"></rect>
        <g id="All" transform="translate(330.000000, 20.000000)">
            <g id="content" transform="translate(40.000000, 23.000000)" fill-rule="nonzero">
                <rect id="Rectangle" fill="#EAEAEA" x="0" y="0" width="150" height="225"></rect>
                <rect id="Rectangle-Copy-7" fill="#FFE86B" x="80" y="664" width="150" height="225"></rect>
                <rect id="Rectangle-Copy" fill="#EAEAEA" transform="translate(451.000000, 211.500000) rotate(-90.000000) translate(-451.000000, -211.500000) " x="376" y="99" width="150" height="225"></rect>
                <rect id="Rectangle-Copy-2" fill="#EAEAEA" transform="translate(165.000000, 418.500000) rotate(-90.000000) translate(-165.000000, -418.500000) " x="90" y="306" width="150" height="225"></rect>
                <rect id="Rectangle-Copy-3" fill="#FFE86B" transform="translate(429.000000, 615.500000) rotate(-90.000000) translate(-429.000000, -615.500000) " x="354" y="503" width="150" height="225"></rect>
                <rect id="Rectangle-Copy-10" fill="#EAEAEA" transform="translate(113.250000, 1076.000000) rotate(-90.000000) translate(-113.250000, -1076.000000) " x="38.25" y="963.5" width="150" height="225"></rect>
                <rect id="Rectangle-Copy-9" fill="#EAEAEA" x="371.75" y="777" width="150" height="225"></rect>
                <rect id="Rectangle-Copy-6" fill="#EAEAEA" transform="translate(425.250000, 1277.000000) rotate(-90.000000) translate(-425.250000, -1277.000000) " x="350.25" y="1164.5" width="150" height="225"></rect>
            </g>
            <g id="frame">
                <polygon id="Path-Copy" stroke="#E5E5E5" stroke-width="2" points="0 0 640 0 640 1440 0 1440"></polygon>
                <polygon id="Path-Copy-2" stroke="#CCCCCC" stroke-width="10" fill-opacity="0" fill="#000000" points="0 479 640 479 640 860.82 0 860.82"></polygon>
                <polygon id="Path-Copy-3" stroke="#CCCCCC" stroke-width="10" fill="#CCCCCC" points="0 440 640 440 640 478.18 0 478.18"></polygon>
                <path d="M40,460 C40,465.52 35.52,470 30,470 C24.48,470 20,465.52 20,460 C20,454.48 24.48,450 30,450 C35.52,450 40,454.48 40,460 Z" id="Path-Copy-4" stroke-opacity="0" stroke="#000000" stroke-width="2" fill="#C92D39"></path>
                <path d="M70,460 C70,465.52 65.52,470 60,470 C54.48,470 50,465.52 50,460 C50,454.48 54.48,450 60,450 C65.52,450 70,454.48 70,460 Z" id="Path-Copy-5" stroke-opacity="0" stroke="#000000" stroke-width="2" fill="#FCC438"></path>
                <path d="M100,460 C100,465.52 95.52,470 90,470 C84.48,470 80,465.52 80,460 C80,454.48 84.48,450 90,450 C95.52,450 100,454.48 100,460 Z" id="Path-Copy-6" stroke-opacity="0" stroke="#000000" stroke-width="2" fill="#7AB648"></path>
                <path d="M620.5,628.33 L620.5,550" id="Path-Copy-7" stroke="#E5E5E5" stroke-width="10"></path>
                <path d="M5,484 L635,484 L635,856 L5,856 L5,484 Z M21,554 L21,786 L614,786 L614,554 L21,554 Z" id="Combined-Shape" fill-opacity="0.391813859" fill="#FF0000" fill-rule="nonzero"></path>
            </g>
        </g>
    </g>
</svg>